<svg width="36" height="36" viewBox="0 0 36 36" fill="none" xmlns="http://www.w3.org/2000/svg">
<path d="M31.158 15.234L29.106 9.0765C28.8083 8.18022 28.2358 7.40055 27.4697 6.84826C26.7036 6.29597 25.7829 5.99916 24.8385 6H11.1615C10.2171 5.99916 9.29642 6.29597 8.53033 6.84826C7.76423 7.40055 7.19167 8.18022 6.894 9.0765L4.842 15.234C4.29692 15.4627 3.83142 15.8471 3.50377 16.3391C3.17612 16.8312 3.00088 17.4089 3 18V25.5C3 26.6295 3.6345 27.603 4.5585 28.1145C4.539 28.2135 4.5 28.3035 4.5 28.407V31.5C4.5 31.8978 4.65804 32.2794 4.93934 32.5607C5.22064 32.842 5.60218 33 6 33H7.5C7.89783 33 8.27936 32.842 8.56066 32.5607C8.84196 32.2794 9 31.8978 9 31.5V28.5H27V31.5C27 31.8978 27.158 32.2794 27.4393 32.5607C27.7206 32.842 28.1022 33 28.5 33H30C30.3978 33 30.7794 32.842 31.0607 32.5607C31.342 32.2794 31.5 31.8978 31.5 31.5V28.407C31.5 28.3035 31.461 28.212 31.4415 28.1145C31.9116 27.8582 32.3042 27.4804 32.5784 27.0204C32.8526 26.5605 32.9982 26.0354 33 25.5V18C33 16.7565 32.238 15.6885 31.158 15.234ZM6 25.5V18H30L30.003 25.5H6ZM11.1615 9H24.837C25.4835 9 26.0565 9.411 26.2605 10.026L27.9195 15H8.0805L9.738 10.026C9.83752 9.72719 10.0286 9.46729 10.2841 9.28314C10.5396 9.09899 10.8466 8.99993 11.1615 9Z" fill="white"/>
<path d="M9.75 24C10.9926 24 12 22.9926 12 21.75C12 20.5074 10.9926 19.5 9.75 19.5C8.50736 19.5 7.5 20.5074 7.5 21.75C7.5 22.9926 8.50736 24 9.75 24Z" fill="white"/>
<path d="M26.25 24C27.4926 24 28.5 22.9926 28.5 21.75C28.5 20.5074 27.4926 19.5 26.25 19.5C25.0074 19.5 24 20.5074 24 21.75C24 22.9926 25.0074 24 26.25 24Z" fill="white"/>
</svg>
