<svg width="35" height="147" viewBox="0 0 35 147" fill="none" xmlns="http://www.w3.org/2000/svg">
<path d="M0.19 70.91C5.82333 69.35 9.59333 67.0967 11.5 64.15C13.4067 61.1167 14.36 57.6933 14.36 53.88C14.36 49.8933 13.7967 44.4333 12.67 37.5C12.5833 36.8067 12.28 34.51 11.76 30.61C11.24 26.71 10.98 22.9833 10.98 19.43C10.98 13.1033 12.5833 8.46666 15.79 5.52C19.0833 2.48666 23.6767 0.969993 29.57 0.969993H34.77V6.17H30.35C25.93 6.17 22.55 7.25333 20.21 9.41999C17.9567 11.5 16.83 14.9233 16.83 19.69C16.83 22.3767 17.0033 25.3667 17.35 28.66C17.6967 31.8667 18.0867 34.9867 18.52 38.02C18.9533 40.7933 19.3 43.61 19.56 46.47C19.9067 49.33 20.08 51.8433 20.08 54.01C20.08 58.95 18.8233 63.11 16.31 66.49C13.8833 69.87 10.1133 72.1667 5 73.38V73.64C10.1133 74.8533 13.8833 77.1933 16.31 80.66C18.8233 84.04 20.08 88.2 20.08 93.14C20.08 95.3067 19.9067 97.82 19.56 100.68C19.3 103.54 18.9533 106.357 18.52 109.13C18.0867 112.163 17.6967 115.327 17.35 118.62C17.0033 121.827 16.83 124.773 16.83 127.46C16.83 132.227 17.9567 135.65 20.21 137.73C22.55 139.897 25.93 140.98 30.35 140.98H34.77V146.18H29.57C23.6767 146.18 19.0833 144.663 15.79 141.63C12.5833 138.683 10.98 134.047 10.98 127.72C10.98 124.167 11.24 120.44 11.76 116.54C12.28 112.64 12.5833 110.343 12.67 109.65C13.7967 102.717 14.36 97.2567 14.36 93.27C14.36 89.4567 13.4067 86.0767 11.5 83.13C9.59333 80.0967 5.82333 77.8 0.19 76.24L0.19 70.91Z" fill="#7CBC94"/>
</svg>
