<svg width="56" height="56" viewBox="0 0 56 56" fill="none" xmlns="http://www.w3.org/2000/svg">
<path d="M35.0003 35H44.3337L51.3337 51.3334H4.66699L11.667 35H21.0003M30.3337 18.6667C30.3337 19.2855 30.0878 19.879 29.6502 20.3166C29.2127 20.7542 28.6192 21 28.0003 21C27.3815 21 26.788 20.7542 26.3504 20.3166C25.9128 19.879 25.667 19.2855 25.667 18.6667C25.667 18.0478 25.9128 17.4544 26.3504 17.0168C26.788 16.5792 27.3815 16.3334 28.0003 16.3334C28.6192 16.3334 29.2127 16.5792 29.6502 17.0168C30.0878 17.4544 30.3337 18.0478 30.3337 18.6667ZM14.0003 18.6667C14.0003 30.3334 28.0003 42 28.0003 42C28.0003 42 42.0003 30.3334 42.0003 18.6667C42.0003 10.6937 35.733 4.66669 28.0003 4.66669C20.2677 4.66669 14.0003 10.6937 14.0003 18.6667Z" stroke="#1F7977" stroke-width="4.16667"/>
</svg>
