<svg width="221" height="37" viewBox="0 0 221 37" fill="none" xmlns="http://www.w3.org/2000/svg">
<path d="M30.48 1.176V36H26.76C26.2 36 25.728 35.912 25.344 35.736C24.96 35.544 24.584 35.224 24.216 34.776L6.864 12.696C6.912 13.256 6.944 13.808 6.96 14.352C6.992 14.896 7.008 15.4 7.008 15.864V36H0.648V1.176H4.44C4.744 1.176 5 1.192 5.208 1.224C5.432 1.24 5.632 1.296 5.808 1.392C5.984 1.472 6.152 1.584 6.312 1.728C6.472 1.872 6.648 2.064 6.84 2.304L24.312 24.48C24.248 23.872 24.2 23.288 24.168 22.728C24.136 22.152 24.12 21.608 24.12 21.096V1.176H30.48ZM71.421 18.576C71.421 21.12 70.989 23.48 70.125 25.656C69.277 27.832 68.069 29.712 66.501 31.296C64.949 32.88 63.077 34.128 60.885 35.04C58.693 35.936 56.261 36.384 53.589 36.384C50.917 36.384 48.485 35.936 46.293 35.04C44.101 34.128 42.221 32.88 40.653 31.296C39.085 29.712 37.869 27.832 37.005 25.656C36.157 23.48 35.733 21.12 35.733 18.576C35.733 16.032 36.157 13.68 37.005 11.52C37.869 9.344 39.085 7.464 40.653 5.88C42.221 4.296 44.101 3.056 46.293 2.16C48.485 1.248 50.917 0.791997 53.589 0.791997C56.261 0.791997 58.693 1.248 60.885 2.16C63.077 3.056 64.949 4.304 66.501 5.904C68.069 7.488 69.277 9.368 70.125 11.544C70.989 13.704 71.421 16.048 71.421 18.576ZM64.053 18.576C64.053 16.752 63.813 15.12 63.333 13.68C62.853 12.224 62.157 10.992 61.245 9.984C60.349 8.96 59.253 8.184 57.957 7.656C56.677 7.112 55.221 6.84 53.589 6.84C51.957 6.84 50.493 7.112 49.197 7.656C47.901 8.184 46.797 8.96 45.885 9.984C44.989 10.992 44.301 12.224 43.821 13.68C43.341 15.12 43.101 16.752 43.101 18.576C43.101 20.416 43.341 22.064 43.821 23.52C44.301 24.96 44.989 26.184 45.885 27.192C46.797 28.2 47.901 28.976 49.197 29.52C50.493 30.048 51.957 30.312 53.589 30.312C55.221 30.312 56.677 30.048 57.957 29.52C59.253 28.976 60.349 28.2 61.245 27.192C62.157 26.184 62.853 24.96 63.333 23.52C63.813 22.064 64.053 20.416 64.053 18.576ZM100.296 6.984H90.12V36H82.896V6.984H72.72V1.176H100.296V6.984ZM111.865 36H104.617V1.176H111.865V36ZM142.86 27.432C143.26 27.432 143.596 27.576 143.868 27.864L146.724 30.912C145.316 32.704 143.564 34.064 141.468 34.992C139.388 35.92 136.908 36.384 134.028 36.384C131.42 36.384 129.076 35.944 126.996 35.064C124.916 34.168 123.148 32.928 121.692 31.344C120.236 29.76 119.116 27.88 118.332 25.704C117.548 23.528 117.156 21.152 117.156 18.576C117.156 16.848 117.34 15.208 117.708 13.656C118.092 12.088 118.644 10.648 119.364 9.336C120.084 8.024 120.948 6.84 121.956 5.784C122.98 4.728 124.132 3.832 125.412 3.096C126.692 2.344 128.084 1.776 129.588 1.392C131.108 0.991998 132.724 0.791997 134.436 0.791997C135.716 0.791997 136.924 0.903997 138.06 1.128C139.212 1.352 140.284 1.664 141.276 2.064C142.268 2.464 143.18 2.952 144.012 3.528C144.86 4.088 145.62 4.704 146.292 5.376L143.868 8.688C143.724 8.896 143.54 9.08 143.316 9.24C143.092 9.4 142.788 9.48 142.404 9.48C142.02 9.48 141.628 9.344 141.228 9.072C140.844 8.8 140.364 8.496 139.788 8.16C139.228 7.824 138.516 7.52 137.652 7.248C136.804 6.976 135.724 6.84 134.412 6.84C132.956 6.84 131.62 7.104 130.404 7.632C129.188 8.16 128.14 8.928 127.26 9.936C126.396 10.928 125.724 12.152 125.244 13.608C124.764 15.064 124.524 16.72 124.524 18.576C124.524 20.448 124.78 22.12 125.292 23.592C125.82 25.048 126.532 26.28 127.428 27.288C128.34 28.296 129.396 29.064 130.596 29.592C131.812 30.104 133.108 30.36 134.484 30.36C135.3 30.36 136.036 30.32 136.692 30.24C137.364 30.16 137.98 30.024 138.54 29.832C139.116 29.64 139.652 29.392 140.148 29.088C140.66 28.784 141.172 28.4 141.684 27.936C141.86 27.792 142.044 27.672 142.236 27.576C142.428 27.48 142.636 27.432 142.86 27.432ZM158.037 36H150.789V1.176H158.037V36ZM183.704 22.776L179.936 12.12C179.712 11.56 179.472 10.904 179.216 10.152C178.976 9.4 178.744 8.584 178.52 7.704C178.296 8.6 178.056 9.432 177.8 10.2C177.56 10.952 177.328 11.608 177.104 12.168L173.36 22.776H183.704ZM195.8 36H190.208C189.584 36 189.072 35.856 188.672 35.568C188.288 35.264 188 34.88 187.808 34.416L185.456 27.768H171.584L169.232 34.416C169.072 34.816 168.792 35.184 168.392 35.52C167.992 35.84 167.488 36 166.88 36H161.24L174.848 1.176H182.216L195.8 36ZM217.887 7.848C217.663 8.216 217.431 8.488 217.191 8.664C216.967 8.824 216.671 8.904 216.303 8.904C215.951 8.904 215.567 8.784 215.151 8.544C214.751 8.288 214.279 8.016 213.735 7.728C213.191 7.44 212.567 7.176 211.863 6.936C211.159 6.68 210.335 6.552 209.391 6.552C207.727 6.552 206.479 6.928 205.647 7.68C204.815 8.416 204.399 9.384 204.399 10.584C204.399 11.352 204.623 11.992 205.071 12.504C205.535 13 206.135 13.432 206.871 13.8C207.623 14.168 208.471 14.496 209.415 14.784C210.359 15.072 211.327 15.392 212.319 15.744C213.311 16.08 214.279 16.48 215.223 16.944C216.167 17.408 217.007 17.992 217.743 18.696C218.495 19.4 219.095 20.264 219.543 21.288C220.007 22.296 220.239 23.528 220.239 24.984C220.239 26.568 219.959 28.056 219.399 29.448C218.855 30.824 218.063 32.032 217.023 33.072C215.983 34.096 214.695 34.904 213.159 35.496C211.639 36.088 209.911 36.384 207.975 36.384C206.871 36.384 205.767 36.272 204.663 36.048C203.575 35.824 202.519 35.512 201.495 35.112C200.487 34.712 199.535 34.232 198.639 33.672C197.743 33.112 196.959 32.488 196.287 31.8L198.399 28.392C198.575 28.136 198.807 27.928 199.095 27.768C199.383 27.592 199.687 27.504 200.007 27.504C200.439 27.504 200.895 27.664 201.375 27.984C201.855 28.304 202.407 28.656 203.031 29.04C203.655 29.424 204.375 29.776 205.191 30.096C206.023 30.416 207.015 30.576 208.167 30.576C209.847 30.576 211.143 30.192 212.055 29.424C212.983 28.656 213.447 27.512 213.447 25.992C213.447 25.112 213.215 24.4 212.751 23.856C212.303 23.312 211.711 22.856 210.975 22.488C210.239 22.12 209.399 21.808 208.455 21.552C207.511 21.28 206.543 20.984 205.551 20.664C204.559 20.344 203.591 19.96 202.647 19.512C201.703 19.064 200.863 18.472 200.127 17.736C199.391 17 198.791 16.088 198.327 15C197.879 13.912 197.655 12.56 197.655 10.944C197.655 9.648 197.911 8.392 198.423 7.176C198.935 5.96 199.687 4.88 200.679 3.936C201.671 2.992 202.887 2.232 204.327 1.656C205.783 1.08 207.447 0.791997 209.319 0.791997C211.415 0.791997 213.351 1.12 215.127 1.776C216.919 2.416 218.431 3.312 219.663 4.464L217.887 7.848Z" fill="#184666"/>
</svg>
