<svg width="66" height="66" viewBox="0 0 66 66" fill="none" xmlns="http://www.w3.org/2000/svg">
<rect width="66" height="66" fill="white"/>
<path d="M19.2505 7.99994H49.5005C51.153 7.99994 52.5005 9.3474 52.5005 10.9999V19.2499C52.5005 20.9025 51.153 22.2499 49.5005 22.2499H19.2505C17.5979 22.2499 16.2505 20.9025 16.2505 19.2499V10.9999C16.2505 9.3474 17.5979 7.99994 19.2505 7.99994Z" stroke="#1F7977" stroke-width="5"/>
<path d="M35.7505 41.2499V35.7499C35.7505 32.7167 33.2837 30.2499 30.2505 30.2499H11.0005V13.7499C7.96724 13.7499 5.50049 16.2167 5.50049 19.2499V30.2499C5.50049 33.2832 7.96724 35.7499 11.0005 35.7499H30.2505V41.2499C29.5211 41.2499 28.8217 41.5397 28.3059 42.0554C27.7902 42.5711 27.5005 43.2706 27.5005 43.9999V57.7499C27.5005 58.4793 27.7902 59.1788 28.3059 59.6945C28.8217 60.2102 29.5211 60.4999 30.2505 60.4999H35.7505C36.4798 60.4999 37.1793 60.2102 37.695 59.6945C38.2108 59.1788 38.5005 58.4793 38.5005 57.7499V43.9999C38.5005 43.2706 38.2108 42.5711 37.695 42.0554C37.1793 41.5397 36.4798 41.2499 35.7505 41.2499Z" fill="#1F7977"/>
</svg>
