<svg width="50" height="56" viewBox="0 0 50 56" fill="none" xmlns="http://www.w3.org/2000/svg">
<path d="M14.2505 2.99994H44.5005C46.153 2.99994 47.5005 4.3474 47.5005 5.99994V14.2499C47.5005 15.9025 46.153 17.2499 44.5005 17.2499H14.2505C12.5979 17.2499 11.2505 15.9025 11.2505 14.2499V5.99994C11.2505 4.3474 12.5979 2.99994 14.2505 2.99994Z" stroke="#1F7977" stroke-width="5"/>
<path d="M30.7505 36.2499V30.7499C30.7505 27.7167 28.2837 25.2499 25.2505 25.2499H6.00049V8.74994C2.96724 8.74994 0.500488 11.2167 0.500488 14.2499V25.2499C0.500488 28.2832 2.96724 30.7499 6.00049 30.7499H25.2505V36.2499C24.5211 36.2499 23.8217 36.5397 23.3059 37.0554C22.7902 37.5711 22.5005 38.2706 22.5005 38.9999V52.7499C22.5005 53.4793 22.7902 54.1788 23.3059 54.6945C23.8217 55.2102 24.5211 55.4999 25.2505 55.4999H30.7505C31.4798 55.4999 32.1793 55.2102 32.695 54.6945C33.2108 54.1788 33.5005 53.4793 33.5005 52.7499V38.9999C33.5005 38.2706 33.2108 37.5711 32.695 37.0554C32.1793 36.5397 31.4798 36.2499 30.7505 36.2499Z" fill="#1F7977"/>
</svg>
