<svg width="28" height="36" viewBox="0 0 28 36" fill="none" xmlns="http://www.w3.org/2000/svg">
<path d="M14 35.8182L3.26328 23.1558C3.11409 22.9657 2.96645 22.7744 2.82037 22.5818C0.986352 20.1659 -0.0044306 17.215 1.48946e-05 14.1819C1.48946e-05 10.4688 1.47501 6.90789 4.10051 4.28238C6.72602 1.65688 10.287 0.181885 14 0.181885C17.713 0.181885 21.274 1.65688 23.8995 4.28238C26.525 6.90789 28 10.4688 28 14.1819C28.0044 17.2137 27.0141 20.1632 25.1809 22.578L25.1796 22.5818C25.1796 22.5818 24.7978 23.0833 24.7405 23.1508L14 35.8182ZM4.85164 21.0482C4.85419 21.0482 5.14946 21.4402 5.21691 21.5242L14 31.8829L22.7945 21.5102C22.8505 21.4402 23.1483 21.0457 23.1496 21.0444C24.6478 19.0705 25.4575 16.6599 25.4545 14.1819C25.4545 11.1439 24.2477 8.23043 22.0996 6.08229C19.9514 3.93415 17.0379 2.72733 14 2.72733C10.9621 2.72733 8.04856 3.93415 5.90042 6.08229C3.75228 8.23043 2.54546 11.1439 2.54546 14.1819C2.54279 16.6614 3.35336 19.0735 4.85291 21.0482H4.85164Z" fill="white"/>
<path d="M20.364 20.5455H17.8185V10.3637H10.1822V20.5455H7.63672V10.3637C7.63739 9.6888 7.90579 9.04175 8.38301 8.56453C8.86023 8.08731 9.50728 7.81891 10.1822 7.81824H17.8185C18.4934 7.81891 19.1405 8.08731 19.6177 8.56453C20.0949 9.04175 20.3633 9.6888 20.364 10.3637V20.5455Z" fill="white"/>
<path d="M12.7275 18.0001H15.273V20.5455H12.7275V18.0001Z" fill="white"/>
<path d="M12.7275 12.9091H15.273V15.4546H12.7275V12.9091Z" fill="white"/>
</svg>
