<svg width="38" height="38" viewBox="0 0 38 38" fill="none" xmlns="http://www.w3.org/2000/svg">
<path d="M28.7981 25.3769L31.4034 27.113C31.656 27.2815 31.9636 27.3468 32.2628 27.2956C32.5621 27.2443 32.8304 27.0804 33.0125 26.8375L36.575 22.0875L34.675 20.6625L31.7858 24.5147L29.1591 22.762C28.9026 22.5907 28.5895 22.5259 28.2861 22.5813C27.9827 22.6367 27.7127 22.808 27.5334 23.0589L23.75 28.3563V19H21.375V30.875C21.3756 31.5047 21.6261 32.1084 22.0713 32.5537C22.5166 32.9989 23.1203 33.2494 23.75 33.25H35.625V30.875H24.8698L28.7981 25.3769Z" fill="white"/>
<path d="M2.375 24.9375H19V27.3125H2.375V24.9375Z" fill="white"/>
<path d="M2.375 30.875H19V33.25H2.375V30.875Z" fill="white"/>
<path d="M13.0625 19V13.0625H14.25C15.5093 13.0609 16.7166 12.56 17.607 11.6695C18.4975 10.7791 18.9984 9.5718 19 8.3125V4.75H15.4375C14.2215 4.75199 13.0531 5.22285 12.1754 6.06456C11.5605 4.94804 10.6575 4.01682 9.56033 3.3679C8.46321 2.71899 7.21216 2.37612 5.9375 2.375H2.375V5.9375C2.3772 7.82649 3.12857 9.63749 4.46429 10.9732C5.80001 12.3089 7.61101 13.0603 9.5 13.0625H10.6875V19H2.375V21.375H19V19H13.0625ZM15.4375 7.125H16.625V8.3125C16.6244 8.9422 16.3739 9.54592 15.9287 9.99118C15.4834 10.4364 14.8797 10.6869 14.25 10.6875H13.0625V9.5C13.0631 8.8703 13.3136 8.26658 13.7588 7.82132C14.2041 7.37605 14.8078 7.12563 15.4375 7.125ZM9.5 10.6875C8.2407 10.6859 7.03344 10.185 6.14298 9.29452C5.25252 8.40406 4.75157 7.1968 4.75 5.9375V4.75H5.9375C7.1968 4.75157 8.40406 5.25252 9.29452 6.14298C10.185 7.03344 10.6859 8.2407 10.6875 9.5V10.6875H9.5Z" fill="white"/>
</svg>
