<svg width="244" height="146" viewBox="0 0 244 146" fill="none" xmlns="http://www.w3.org/2000/svg">
<path d="M36.2 95.9C40 99.1 41.7 104 41.8 110.4C41.8 116.8 39.9 121.7 36.1 124.7C32.3 127.7 26.5 129.2 18.7 129.2H9.1V144.9H0.2L0 91.3H18.3C26.4 91.3 32.3 92.7 36.2 95.9ZM29.8 118.1C31.7 116.2 32.6 113.4 32.6 109.8C32.6 106.2 31.3 103.4 29 101.9C26.7 100.4 23.3 99.6 18.4 99.6H9V121.1H19.6C24.7 121 27.9 120 29.8 118.1ZM59.6 122.7V144.8H51.1L51 88H59.5V111.4C60.8 108.8 62.7 107.1 65.2 105.6C67.8 104.1 70.3 103.5 73.1 103.5C77.8 103.5 81.6 104.8 84.4 107.5C87.2 110.3 88.7 114.5 88.7 119.8V144.7H80V122.4C80 115 76.8 111.1 70.6 111.1C67.6 111.1 65.1 112.2 62.9 114.1C60.9 116.1 59.6 118.9 59.6 122.7ZM119.2 137.7C123 137.7 126.2 136.4 128.6 133.9C130.9 131.3 132.2 128.2 132.2 124.3C132.2 120.5 130.9 117.3 128.6 114.7C126.3 112.2 123.1 111.1 119.2 111.1C115.4 111.1 112.4 112.2 110.1 114.7C107.8 117.3 106.5 120.4 106.5 124.3C106.5 128.1 107.8 131.3 110.1 133.9C112.4 136.5 115.4 137.7 119.2 137.7ZM119.2 145.4C113 145.4 107.9 143.3 103.9 139.3C99.9 135.3 97.9 130.4 97.9 124.4C97.9 118.4 99.8 113.5 103.8 109.5C107.8 105.5 112.9 103.5 119.1 103.5C125.3 103.5 130.4 105.4 134.4 109.4C138.4 113.4 140.6 118.3 140.6 124.3C140.6 130.3 138.5 135.2 134.5 139.2C130.5 143.2 125.4 145.4 119.2 145.4ZM160.8 110.8V131.4C160.8 133.3 161.2 135 162.3 136.1C163.4 137.2 164.6 137.8 166.6 137.8C168.5 137.8 170.2 136.7 171.9 135L175.5 141.2C172.5 144 169.1 145.3 165.5 145.3C161.9 145.3 158.7 144 156.1 141.5C153.5 139 152.3 135.5 152.3 131.3V110.9H147V103.9H152.3V91.1H160.8V103.9H171.4V110.9L160.8 110.8ZM190.7 144.6H182.2L182.1 103.8H190.6L190.7 144.6ZM221.7 137.5C225.5 137.5 228.7 136.2 231.1 133.7C233.4 131.1 234.7 128 234.7 124.1C234.7 120.3 233.4 117.1 231.1 114.5C228.8 112 225.6 110.9 221.7 110.9C217.9 110.9 214.9 112 212.6 114.5C210.3 117.1 209 120.2 209 124.1C209 127.9 210.3 131.1 212.6 133.7C214.9 136.3 217.9 137.6 221.7 137.5ZM221.7 145.2C215.5 145.2 210.4 143.1 206.4 139.1C202.4 135.1 200.4 130.2 200.4 124.2C200.4 118.2 202.3 113.3 206.3 109.3C210.3 105.3 215.4 103.3 221.6 103.3C227.8 103.3 232.9 105.2 236.9 109.2C240.9 113.2 243.1 118.1 243.1 124.1C243.1 130.1 241 135 237 139C233 143 227.9 145.2 221.7 145.2Z" fill="white"/>
<path d="M190.903 72.309C191.787 71.5851 192.341 70.5038 192.461 69.2982L195.899 25.5048C196.02 23.6703 195 21.8847 193.31 21.1283C192.844 20.9197 192.41 20.7954 191.865 20.7616L187.477 20.4067C186.329 20.313 185.174 20.7056 184.291 21.4294C183.407 22.1533 182.853 23.2347 182.734 24.4403L179.296 68.2337C179.174 70.0682 180.194 71.8537 181.884 72.6101C182.35 72.8188 182.843 72.9692 183.329 72.9769L187.717 73.3317C188.865 73.4254 189.994 73.0912 190.903 72.309ZM183.658 68.6468L187.096 24.8534L191.484 25.2082L188.046 69.0016L183.658 68.6468ZM194.458 79.2165L193.685 77.1917L191.661 77.9645C191.239 78.1255 181.679 81.8226 178.523 88.875C175.81 94.9366 179.774 99.3684 183.096 100.855C186.418 102.342 192.363 102.344 195.076 96.2825C198.232 89.2301 194.619 79.6383 194.458 79.2165ZM184.895 96.8335C184.429 96.6249 180.693 94.8129 182.545 90.6747C184.162 87.0611 188.422 84.4202 191.051 83.0784C191.802 85.9331 192.671 90.8692 191.054 94.4828C189.333 98.3296 185.886 97.2769 184.895 96.8335ZM136.11 60.3107C135.507 60.2508 134.931 60.1326 134.406 59.8979C131.783 58.7242 132.077 55.5675 132.077 55.5675C132.077 55.5675 133.412 38.0461 134.121 29.2693C134.476 24.881 138.456 25.0532 138.456 25.0532L168.249 27.2624L164.415 35.8302C164.388 35.8885 164.304 35.9207 164.045 35.8747C159.229 35.5382 155.154 39.1715 154.792 44.0461C154.523 47.7734 156.647 51.3123 160.027 52.8251C160.96 53.2424 161.971 53.4849 162.975 53.5847C165.328 53.7982 167.612 53.0714 169.373 51.481C171.134 49.8906 171.866 47.6297 172.054 45.3351C172.301 42.4376 172.087 40.103 168.352 37.6622L172.838 27.6372L177.661 28.1164L177.841 23.6497L174.768 23.3242L182.254 6.59659C182.75 5.48918 183.155 4.27133 182.047 3.77576L174.004 0.176328C172.897 -0.319246 170.685 0.0900416 170.189 1.19744L160.773 22.2381L138.785 20.7231C138.299 20.7154 136.698 20.6983 134.731 21.4972C131.668 22.7148 129.871 25.4786 129.59 28.9206L127.545 55.2188C127.358 57.5134 128.235 61.9633 132.49 63.8674C133.422 64.2847 134.491 64.5532 135.639 64.6469L174.959 67.7623L175.314 63.3739C174.225 63.3063 144.686 61.0004 136.11 60.3107ZM165.543 40.8124C167.233 41.5688 168.279 43.2961 168.132 45.1889C167.95 47.6262 165.826 49.4037 163.388 49.2224C162.902 49.2147 162.41 49.0643 161.943 48.8557C160.253 48.0993 159.207 46.372 159.355 44.4792C159.536 42.0419 161.661 40.2644 164.098 40.4457C164.558 40.5117 165.077 40.6038 165.543 40.8124ZM173.545 4.79786L177.566 6.59757L170.185 23.092L165.511 22.7494L173.545 4.79786Z" fill="white"/>
</svg>
