<svg width="54" height="52" viewBox="0 0 54 52" fill="none" xmlns="http://www.w3.org/2000/svg">
<path d="M33.9998 33H43.3332L50.3332 49.3334H3.6665L10.6665 33H19.9998M29.3332 16.6667C29.3332 17.2855 29.0873 17.879 28.6498 18.3166C28.2122 18.7542 27.6187 19 26.9998 19C26.381 19 25.7875 18.7542 25.3499 18.3166C24.9123 17.879 24.6665 17.2855 24.6665 16.6667C24.6665 16.0478 24.9123 15.4544 25.3499 15.0168C25.7875 14.5792 26.381 14.3334 26.9998 14.3334C27.6187 14.3334 28.2122 14.5792 28.6498 15.0168C29.0873 15.4544 29.3332 16.0478 29.3332 16.6667ZM12.9998 16.6667C12.9998 28.3334 26.9998 40 26.9998 40C26.9998 40 40.9998 28.3334 40.9998 16.6667C40.9998 8.69369 34.7325 2.66669 26.9998 2.66669C19.2672 2.66669 12.9998 8.69369 12.9998 16.6667Z" stroke="#1F7977" stroke-width="4.16667"/>
</svg>
