<svg width="32" height="30" viewBox="0 0 32 30" fill="none" xmlns="http://www.w3.org/2000/svg">
<path fill-rule="evenodd" clip-rule="evenodd" d="M8 27.6798C8.4 27.6798 8.85714 27.5141 9.14286 27.2378C9.42857 26.9616 9.6 26.5748 9.6 26.1329C9.6 25.7461 9.42857 25.3041 9.14286 25.0279C8.85714 24.7516 8.45714 24.5859 8 24.5859C7.6 24.5859 7.14286 24.7516 6.85714 25.0279C6.57143 25.3041 6.4 25.6909 6.4 26.1329C6.4 26.5196 6.57143 26.9616 6.85714 27.2378C7.14286 27.5141 7.6 27.6798 8 27.6798ZM8 30.0003C9.08571 30.0003 10.0571 29.6135 10.8571 28.84C11.6 28.1218 12.0571 27.1273 12.0571 26.0776C12.0571 25.0279 11.6571 24.0887 10.8571 23.3152C10.1143 22.5969 9.08571 22.155 8 22.155C6.91429 22.155 5.94286 22.5417 5.14286 23.3152C4.4 24.0334 3.94286 25.0279 3.94286 26.0776C3.94286 27.1273 4.34286 28.0666 5.14286 28.84C5.94286 29.6135 6.97143 30.0003 8 30.0003ZM24 30.0003C25.0857 30.0003 26.0571 29.6135 26.8571 28.84C27.6 28.1218 28.0571 27.1273 28.0571 26.0776C28.0571 25.0279 27.6571 24.0887 26.8571 23.3152C26.1143 22.5969 25.0857 22.155 24 22.155C22.9143 22.155 21.9429 22.5417 21.1429 23.3152C20.4 24.0334 19.9429 25.0279 19.9429 26.0776C19.9429 27.1273 20.3429 28.0666 21.1429 28.84C21.9429 29.6135 22.9714 30.0003 24 30.0003ZM0.228571 5.19363C0.342857 5.08313 0.457143 4.97263 0.571429 4.91738C0.685714 4.86213 0.857143 4.80688 0.971429 4.80688H30.9714C31.1429 4.80688 31.2571 4.86213 31.3714 4.91738C31.4857 4.97263 31.6 5.08313 31.7143 5.19363C31.8286 5.30412 31.8857 5.41462 31.8857 5.58037C31.9429 5.69086 31.9429 5.85661 31.8857 6.02235L28.8571 21.492C28.8 21.713 28.6857 21.934 28.5143 22.0445C28.3429 22.2102 28.1143 22.2654 27.8857 22.2654H4C3.77143 22.2654 3.54286 22.2102 3.37143 22.0445C3.2 21.8787 3.08571 21.713 3.02857 21.492L0 5.96711C0 5.80136 0 5.69086 0 5.52512C0.0571429 5.41462 0.114286 5.30412 0.228571 5.19363ZM3.2 7.34832L5.77143 19.7793H26.2286L28.6286 7.34832H3.2ZM24 27.6798C24.4 27.6798 24.8571 27.5141 25.1429 27.2378C25.4286 26.9616 25.6 26.5748 25.6 26.1329C25.6 25.7461 25.4286 25.3041 25.1429 25.0279C24.8571 24.7516 24.4571 24.5859 24 24.5859C23.5429 24.5859 23.1429 24.7516 22.8571 25.0279C22.5714 25.3041 22.4 25.6909 22.4 26.1329C22.4 26.5196 22.5714 26.9616 22.8571 27.2378C23.2 27.5141 23.6 27.6798 24 27.6798Z" fill="white"/>
<path fill-rule="evenodd" clip-rule="evenodd" d="M11.999 1.9337C12.4561 1.32597 13.0847 0.828729 13.7704 0.497238C14.4561 0.165746 15.2561 0 15.999 0C16.799 0 17.5418 0.165746 18.2275 0.497238C18.9133 0.828729 19.5418 1.32597 19.999 1.9337C21.6561 1.9337 23.0847 2.70718 23.999 3.8674C25.3133 3.8674 26.5704 4.36464 27.4847 5.19337L26.1133 6.62983C25.5418 6.1326 24.799 5.80111 24.0561 5.80111C23.4275 5.80111 22.8561 5.52486 22.4561 5.02762C21.8847 4.30939 20.9704 3.8674 19.999 3.8674C19.3704 3.8674 18.799 3.59116 18.399 3.09392C18.1133 2.70718 17.7704 2.43094 17.3133 2.20994C16.9133 1.98895 16.4561 1.87845 15.9418 1.87845C15.4847 1.87845 15.0275 1.98895 14.5704 2.20994C14.1704 2.43094 13.7704 2.70718 13.4847 3.09392C13.2561 3.59116 12.6275 3.8674 11.999 3.8674C10.9704 3.8674 10.1133 4.36464 9.54183 5.08287C9.19897 5.58011 8.74183 5.96685 8.28468 6.29834C8.11325 6.40884 7.94183 6.57459 7.7704 6.74033L6.22754 5.52486C6.51325 5.24862 6.79897 4.97238 7.08468 4.75138C7.3704 4.53039 7.65611 4.30939 7.88468 3.9779C8.34183 3.37017 8.9704 2.81768 9.65611 2.48619C10.3418 2.1547 11.199 1.9337 11.999 1.9337Z" fill="white"/>
</svg>
