<svg width="26" height="26" viewBox="0 0 26 26" fill="none" xmlns="http://www.w3.org/2000/svg">
<g clip-path="url(#clip0)">
<path d="M1.625 0.000596443L0 1.6256L3.575 6.63222C3.7255 6.84306 3.92423 7.01485 4.1546 7.13329C4.38498 7.25173 4.64034 7.31338 4.89937 7.3131H5.01312C5.22678 7.31293 5.43837 7.3549 5.63579 7.43659C5.8332 7.51829 6.01257 7.63812 6.16362 7.78922L10.5105 12.1361L6.25787 16.4488C5.53051 16.2347 4.76327 16.1931 4.017 16.3271C3.27072 16.4612 2.56596 16.7673 1.95861 17.2212C1.35126 17.6751 0.858034 18.2643 0.518056 18.942C0.178078 19.6198 0.000702327 20.3674 0 21.1256C0.000974128 21.8242 0.152106 22.5145 0.443156 23.1497C0.734206 23.7848 1.15837 24.35 1.68692 24.8069C2.21547 25.2638 2.83605 25.6017 3.50661 25.7978C4.17718 25.9939 4.88206 26.0436 5.5735 25.9435C6.26494 25.8434 6.92679 25.5958 7.5142 25.2176C8.10162 24.8394 8.60087 24.3393 8.97814 23.7513C9.3554 23.1632 9.60187 22.501 9.70084 21.8094C9.7998 21.1178 9.74896 20.413 9.55175 19.7427L13.8645 15.4901L15.4375 17.0631L14.9419 18.5483C14.8466 18.8346 14.833 19.1418 14.9024 19.4354C14.9719 19.729 15.1217 19.9975 15.3351 20.2107L20.7886 25.6642C21.0934 25.9689 21.5066 26.14 21.9375 26.14C22.3684 26.14 22.7816 25.9689 23.0864 25.6642L25.6636 23.087C25.9683 22.7822 26.1394 22.369 26.1394 21.9381C26.1394 21.5072 25.9683 21.094 25.6636 20.7892L20.2101 15.3357C19.9969 15.1223 19.7284 14.9725 19.4348 14.903C19.1412 14.8336 18.834 14.8472 18.5477 14.9425L17.0625 15.4381L15.5025 13.8781L19.8575 9.58322C20.58 9.77607 21.337 9.80043 22.0704 9.65442C22.8038 9.5084 23.4938 9.19592 24.0873 8.74107C24.6808 8.28621 25.1619 7.70113 25.4935 7.03094C25.8251 6.36075 25.9984 5.62335 26 4.8756C26 4.43847 25.9431 4.01435 25.8342 3.61297L22.3568 7.0921L19.5 6.5006L18.9085 3.64547L22.3876 0.166346C21.56 -0.056179 20.6883 -0.0565944 19.8605 0.165142C19.0327 0.386879 18.2779 0.822931 17.6723 1.42934C17.0667 2.03576 16.6317 2.7911 16.4111 3.61924C16.1905 4.44737 16.1921 5.31903 16.4158 6.14635L12.1257 10.4981L7.78863 6.16422C7.48386 5.85955 7.31259 5.44629 7.3125 5.01535V4.89997C7.31252 4.64121 7.25075 4.38618 7.13232 4.1561C7.0139 3.92603 6.84223 3.72756 6.63162 3.57722L1.625 0.000596443ZM17.2997 17.3003C17.3752 17.2247 17.4649 17.1646 17.5636 17.1237C17.6623 17.0827 17.7681 17.0616 17.875 17.0616C17.9819 17.0616 18.0877 17.0827 18.1864 17.1237C18.2851 17.1646 18.3748 17.2247 18.4503 17.3003L23.3253 22.1753C23.4008 22.2509 23.4607 22.3406 23.5016 22.4393C23.5425 22.538 23.5635 22.6438 23.5635 22.7506C23.5635 22.8574 23.5425 22.9632 23.5016 23.0619C23.4607 23.1606 23.4008 23.2503 23.3253 23.3258C23.2497 23.4014 23.16 23.4613 23.0613 23.5022C22.9626 23.5431 22.8568 23.5641 22.75 23.5641C22.6432 23.5641 22.5374 23.5431 22.4387 23.5022C22.34 23.4613 22.2503 23.4014 22.1747 23.3258L17.2997 18.4508C17.2241 18.3754 17.1641 18.2857 17.1231 18.187C17.0821 18.0883 17.061 17.9825 17.061 17.8756C17.061 17.7687 17.0821 17.6629 17.1231 17.5642C17.1641 17.4655 17.2241 17.3758 17.2997 17.3003ZM4.875 17.8756L5.64038 18.2688L6.5 18.3111L6.96638 19.0342L7.6895 19.5006L7.73175 20.3602L8.125 21.1256L7.73175 21.891L7.6895 22.7506L6.96638 23.217L6.5 23.9401L5.64038 23.9823L4.875 24.3756L4.10962 23.9823L3.25 23.9401L2.78363 23.217L2.0605 22.7506L2.01825 21.891L1.625 21.1256L2.01825 20.3602L2.0605 19.5006L2.78363 19.0342L3.25 18.3111L4.10962 18.2688L4.875 17.8756Z" fill="white"/>
</g>
<defs>
<clipPath id="clip0">
<rect width="26" height="26" fill="white"/>
</clipPath>
</defs>
</svg>
