<svg width="36" height="42" viewBox="0 0 36 42" fill="none" xmlns="http://www.w3.org/2000/svg">
<path d="M36 4.2H33.2308V1.9607C33.2308 0.882 32.4291 0 31.4515 0H22.5457C21.5709 0 20.7692 0.882 20.7692 1.9607V4.2H4.113L0 12.6H2.85577V18.2H2.39331L0.0865385 21L2.39331 23.8H2.89869V25.3036C2.89869 25.6837 3.18877 25.991 3.54808 25.991C4.62185 25.991 5.49554 26.9178 5.49554 28.0567C5.49554 29.1956 4.62185 30.1224 3.54808 30.1224C2.47431 30.1224 1.60062 29.1956 1.60062 28.0567C1.60062 27.6766 1.30985 27.3693 0.951231 27.3693C0.591923 27.3693 0.301846 27.6766 0.301846 28.0567C0.303231 29.9565 1.75846 31.5 3.54808 31.5C5.337 31.5 6.79362 29.9565 6.79362 28.0574C6.79362 26.3949 5.67692 25.0033 4.19746 24.6848V23.8H4.70215L7.00962 21L4.70215 18.2H4.24038V12.6H20.7692V17.6393C20.7692 18.5689 21.3653 19.348 22.1538 19.5482V42H23.9712V37.8L30.0288 39.9L23.9712 42H31.8462V19.5475C32.6354 19.348 33.2308 18.5689 33.2308 17.6393V12.6H36V10.5H34.5614L36 7.7385V4.2ZM3.21438 10.5L4.83162 7.1407L6.58038 10.5H3.21438ZM6.27577 6.3H9.15092L7.71369 9.0615L6.27577 6.3ZM8.847 10.5L10.2849 7.7385L11.7235 10.5H8.847ZM11.4189 6.3H14.2941L12.8562 9.0615L11.4189 6.3ZM13.9908 10.5L15.4281 7.7385L16.8653 10.5H13.9908ZM16.5621 6.3H19.4372L18 9.0615L16.5621 6.3ZM20.7692 10.5H19.1333L20.5705 7.7385L20.7692 8.12V10.5ZM30.0288 37.8L23.9712 35.7L30.0288 33.6V37.8ZM23.9712 33.6V29.4L30.0288 31.5014L23.9712 33.6ZM30.0288 29.4L23.9712 27.3L30.0288 25.2V29.4ZM23.9712 25.2V21.0014L30.0288 23.1L23.9712 25.2ZM30.0288 21.0014L25.9892 19.6H30.0288V21.0014ZM31.0673 9.2736C31.0673 9.9477 30.5993 10.5 30.0288 10.5H23.7967C23.2262 10.5 22.7596 9.9477 22.7596 9.2736V3.3306C22.7596 2.6523 23.2262 2.1 23.7967 2.1H30.0288C30.5993 2.1 31.0673 2.6523 31.0673 3.3306V9.2736ZM33.4281 9.0615L33.2308 8.6821V6.3H34.8653L33.4281 9.0615Z" fill="white"/>
</svg>
